<?xml version="1.0" encoding="UTF-8" standalone="no"?>
<!-- Generator: Adobe Illustrator 19.0.0, SVG Export Plug-In . SVG Version: 6.00 Build 0)  -->

<svg
   version="1.1"
   id="Layer_1"
   x="0px"
   y="0px"
   viewBox="0 0 512.001 512.001"
   style="enable-background:new 0 0 512.001 512.001;"
   xml:space="preserve"
   sodipodi:docname="course-features-1.svg"
   inkscape:version="1.1 (1:1.1+202105261517+ce6663b3b7)"
   xmlns:inkscape="http://www.inkscape.org/namespaces/inkscape"
   xmlns:sodipodi="http://sodipodi.sourceforge.net/DTD/sodipodi-0.dtd"
   xmlns="http://www.w3.org/2000/svg"
   xmlns:svg="http://www.w3.org/2000/svg"><defs
   id="defs59" /><sodipodi:namedview
   id="namedview57"
   pagecolor="#ffffff"
   bordercolor="#666666"
   borderopacity="1.0"
   inkscape:pageshadow="2"
   inkscape:pageopacity="0.0"
   inkscape:pagecheckerboard="0"
   showgrid="false"
   inkscape:zoom="1.6484344"
   inkscape:cx="256.00049"
   inkscape:cy="256.30381"
   inkscape:window-width="1848"
   inkscape:window-height="1016"
   inkscape:window-x="72"
   inkscape:window-y="27"
   inkscape:window-maximized="1"
   inkscape:current-layer="Layer_1" />
<g
   id="g6">
	<g
   id="g4">
		<path
   d="M303,129.734C356.172,86.293,325.299,0,256.569,0c-68.742,0-99.598,86.298-46.431,129.734    c-16.433,13.425-26.94,33.805-26.94,56.589v56.083c0,9.423,7.64,17.063,17.063,17.063h112.616c9.423,0,17.063-7.64,17.063-17.063    v-56.083C329.94,163.54,319.433,143.16,303,129.734z M256.001,34.236c21.515,0,39.02,17.504,39.02,39.02    c0,21.515-17.504,39.02-39.02,39.02s-39.02-17.504-39.02-39.02C216.981,51.741,234.485,34.236,256.001,34.236z M295.814,225.342    h-78.49V187c0-18.595,14.963-36.598,33.365-39.27c24.237-3.52,45.125,15.156,45.125,38.592V225.342z"
   id="path2"
   style="fill:#00c5fd;fill-opacity:1" />
	</g>
</g>
<g
   id="g12">
	<g
   id="g10">
		<path
   d="M147.158,382.267c53.172-43.439,22.299-129.734-46.431-129.734c-68.742,0-99.597,86.3-46.431,129.734    c-16.433,13.425-26.94,33.805-26.94,56.589v56.083c0,9.423,7.64,17.063,17.063,17.063h112.616c9.423,0,17.063-7.64,17.063-17.063    v-56.083C174.098,416.072,163.591,395.692,147.158,382.267z M100.95,286.658c21.515,0,39.02,17.504,39.02,39.02    s-17.504,39.02-39.02,39.02c-21.515,0-39.02-17.504-39.02-39.02C61.932,304.163,79.435,286.658,100.95,286.658z M139.972,477.874    h-78.49v-38.342c0-18.595,14.963-36.598,33.365-39.27c24.237-3.52,45.125,15.156,45.125,38.592V477.874z"
   id="path8"
   style="fill:#00c5fd;fill-opacity:1" />
	</g>
</g>
<g
   id="g18">
	<g
   id="g16">
		<path
   d="M457.704,382.267c53.172-43.439,22.299-129.734-46.431-129.734c-68.742,0-99.597,86.3-46.431,129.734    c-16.433,13.425-26.94,33.805-26.94,56.589v56.083c0,9.423,7.64,17.063,17.063,17.063h112.616c9.423,0,17.063-7.64,17.063-17.063    v-56.083C484.645,416.071,474.137,395.692,457.704,382.267z M411.05,286.658c21.515,0,39.02,17.504,39.02,39.02    s-17.504,39.02-39.02,39.02c-21.515,0-39.02-17.504-39.02-39.02S389.534,286.658,411.05,286.658z M450.519,477.874h-78.49v-38.342    c0-18.595,14.963-36.598,33.365-39.27c24.237-3.52,45.125,15.156,45.125,38.592V477.874z"
   id="path14"
   style="fill:#00c5fd;fill-opacity:1" />
	</g>
</g>
<g
   id="g24">
	<g
   id="g22">
		<path
   d="M318.605,395.963l-45.541-45.541v-64.405c0-9.423-7.64-17.063-17.063-17.063c-9.423,0-17.063,7.64-17.063,17.063v64.405    l-45.541,45.541c-6.664,6.664-6.664,17.467,0,24.13c6.662,6.664,17.467,6.664,24.13,0l38.474-38.474l38.474,38.474    c6.663,6.663,17.467,6.664,24.13,0C325.268,413.429,325.268,402.626,318.605,395.963z"
   id="path20"
   style="fill:#00c5fd;fill-opacity:1" />
	</g>
</g>
<g
   id="g26">
</g>
<g
   id="g28">
</g>
<g
   id="g30">
</g>
<g
   id="g32">
</g>
<g
   id="g34">
</g>
<g
   id="g36">
</g>
<g
   id="g38">
</g>
<g
   id="g40">
</g>
<g
   id="g42">
</g>
<g
   id="g44">
</g>
<g
   id="g46">
</g>
<g
   id="g48">
</g>
<g
   id="g50">
</g>
<g
   id="g52">
</g>
<g
   id="g54">
</g>
</svg>
