<?xml version="1.0" encoding="UTF-8" standalone="no"?>
<!-- Generator: Adobe Illustrator 16.0.0, SVG Export Plug-In . SVG Version: 6.00 Build 0)  -->

<svg
   version="1.1"
   id="Capa_1"
   x="0px"
   y="0px"
   width="436.38px"
   height="436.381px"
   viewBox="0 0 436.38 436.381"
   style="enable-background:new 0 0 436.38 436.381;"
   xml:space="preserve"
   sodipodi:docname="course-features-2.svg"
   inkscape:version="1.1 (1:1.1+202105261517+ce6663b3b7)"
   xmlns:inkscape="http://www.inkscape.org/namespaces/inkscape"
   xmlns:sodipodi="http://sodipodi.sourceforge.net/DTD/sodipodi-0.dtd"
   xmlns="http://www.w3.org/2000/svg"
   xmlns:svg="http://www.w3.org/2000/svg"><defs
   id="defs43" /><sodipodi:namedview
   id="namedview41"
   pagecolor="#ffffff"
   bordercolor="#666666"
   borderopacity="1.0"
   inkscape:pageshadow="2"
   inkscape:pageopacity="0.0"
   inkscape:pagecheckerboard="0"
   showgrid="false"
   inkscape:zoom="1.9340897"
   inkscape:cx="218.19051"
   inkscape:cy="218.44903"
   inkscape:window-width="1848"
   inkscape:window-height="1016"
   inkscape:window-x="72"
   inkscape:window-y="27"
   inkscape:window-maximized="1"
   inkscape:current-layer="Capa_1" />
<g
   id="g8">
	<g
   id="g6">
		<path
   d="M218.19,232c54.735,0,99.107-51.936,99.107-116c0-88.842-44.371-116-99.107-116c-54.736,0-99.107,27.158-99.107,116    C119.083,180.064,163.455,232,218.19,232z"
   id="path2"
   style="fill:#00c5fd;fill-opacity:1" />
		<path
   d="M432.47,408.266l-50-112.636c-1.838-4.142-5.027-7.534-9.045-9.626l-79.62-41.445c-4.809-2.504-10.423-2.947-15.564-1.231    c-5.141,1.715-9.364,5.442-11.707,10.329L232.7,324.266l4.261-38.408c0.133-1.201-0.174-2.412-0.865-3.405l-13.8-19.839    c-0.048-0.068-0.104-0.131-0.154-0.195l11.935-9.061c1.028-0.781,1.633-1.998,1.633-3.291c0-4.834-3.935-8.769-8.77-8.769h-17.498    c-4.835,0-8.769,3.935-8.769,8.769c0,1.293,0.604,2.51,1.633,3.291l11.934,9.061c-0.051,0.064-0.106,0.127-0.154,0.195    l-13.8,19.839c-0.691,0.993-0.999,2.204-0.865,3.405l4.26,38.408l-33.834-70.609c-2.342-4.887-6.566-8.614-11.707-10.329    c-5.14-1.716-10.757-1.271-15.564,1.231l-79.62,41.445c-4.018,2.092-7.207,5.484-9.045,9.626l-50,112.636    c-2.746,6.188-2.177,13.342,1.512,19.018c3.689,5.674,9.999,9.098,16.768,9.098h392c6.769,0,13.078-3.424,16.768-9.1    C434.648,421.607,435.216,414.453,432.47,408.266z"
   id="path4"
   style="fill:#00c5fd;fill-opacity:1" />
	</g>
</g>
<g
   id="g10">
</g>
<g
   id="g12">
</g>
<g
   id="g14">
</g>
<g
   id="g16">
</g>
<g
   id="g18">
</g>
<g
   id="g20">
</g>
<g
   id="g22">
</g>
<g
   id="g24">
</g>
<g
   id="g26">
</g>
<g
   id="g28">
</g>
<g
   id="g30">
</g>
<g
   id="g32">
</g>
<g
   id="g34">
</g>
<g
   id="g36">
</g>
<g
   id="g38">
</g>
</svg>
