<?xml version="1.0" encoding="UTF-8" standalone="no"?>
<svg
   width="32px"
   height="32px"
   viewBox="0 0 32 32"
   id="icon"
   version="1.1"
   sodipodi:docname="curriculum-1.svg"
   inkscape:version="1.1 (1:1.1+202105261517+ce6663b3b7)"
   xmlns:inkscape="http://www.inkscape.org/namespaces/inkscape"
   xmlns:sodipodi="http://sodipodi.sourceforge.net/DTD/sodipodi-0.dtd"
   xmlns="http://www.w3.org/2000/svg"
   xmlns:svg="http://www.w3.org/2000/svg">
  <sodipodi:namedview
     id="namedview18"
     pagecolor="#ffffff"
     bordercolor="#666666"
     borderopacity="1.0"
     inkscape:pageshadow="2"
     inkscape:pageopacity="0.0"
     inkscape:pagecheckerboard="0"
     showgrid="false"
     inkscape:zoom="26.375"
     inkscape:cx="16"
     inkscape:cy="16.018957"
     inkscape:window-width="1848"
     inkscape:window-height="1016"
     inkscape:window-x="72"
     inkscape:window-y="27"
     inkscape:window-maximized="1"
     inkscape:current-layer="icon" />
  <defs
     id="defs4">
    <linearGradient
       id="linearGradient3561"
       inkscape:swatch="solid">
      <stop
         style="stop-color:#00c5fd;stop-opacity:1;"
         offset="0"
         id="stop3559" />
    </linearGradient>
    <linearGradient
       id="linearGradient3510"
       inkscape:swatch="solid">
      <stop
         style="stop-color:#000000;stop-opacity:1;"
         offset="0"
         id="stop3508" />
    </linearGradient>
    <linearGradient
       id="linearGradient1322"
       inkscape:swatch="solid">
      <stop
         style="stop-color:#fcfffd;stop-opacity:1;"
         offset="0"
         id="stop1320" />
    </linearGradient>
    <style
       id="style2">
      .cls-1 {
        fill: none;
      }
    </style>
  </defs>
  <circle
     cx="16"
     cy="16"
     r="2"
     id="circle6"
     style="fill:none;fill-opacity:1;stroke:#00c5fd;stroke-opacity:1" />
  <polygon
     points="30 17 30 15 23.83 15 26.41 12.41 25 11 20 16 25 21 26.41 19.59 23.83 17 30 17"
     id="polygon8"
     style="fill:none;fill-opacity:1;stroke:#00c5fd;stroke-opacity:1" />
  <polygon
     points="15 23.83 15 30 17 30 17 23.83 19.59 26.41 21 25 16 20 11 25 12.41 26.41 15 23.83"
     id="polygon10"
     style="fill:none;fill-opacity:1;stroke:#00c5fd;stroke-opacity:1" />
  <polygon
     points="7 11 5.59 12.41 8.17 15 2 15 2 17 8.17 17 5.59 19.59 7 21 12 16 7 11"
     id="polygon12"
     style="fill:none;fill-opacity:1;stroke:#00c5fd;stroke-opacity:1" />
  <polygon
     points="17 8.17 17 2 15 2 15 8.17 12.41 5.59 11 7 16 12 21 7 19.59 5.59 17 8.17"
     id="polygon14"
     style="fill:none;fill-opacity:1;stroke:#00c5fd;stroke-opacity:1" />
  <rect
     id="_Transparent_Rectangle_"
     data-name="&lt;Transparent Rectangle&gt;"
     class="cls-1"
     width="32"
     height="32" />
</svg>
