<?xml version="1.0" encoding="UTF-8" standalone="no"?>
<svg
   width="24px"
   height="24px"
   viewBox="0 0 48 48"
   version="1.1"
   id="svg6"
   sodipodi:docname="selenium.svg"
   inkscape:version="1.1 (1:1.1+202105261517+ce6663b3b7)"
   inkscape:export-filename="/media/ramb/Data/teksandsAI/DevOps_LandingPage/assets/selenium.png"
   inkscape:export-xdpi="1000"
   inkscape:export-ydpi="1000"
   xmlns:inkscape="http://www.inkscape.org/namespaces/inkscape"
   xmlns:sodipodi="http://sodipodi.sourceforge.net/DTD/sodipodi-0.dtd"
   xmlns="http://www.w3.org/2000/svg"
   xmlns:svg="http://www.w3.org/2000/svg">
  <defs
     id="defs10" />
  <sodipodi:namedview
     id="namedview8"
     pagecolor="#ffffff"
     bordercolor="#666666"
     borderopacity="1.0"
     inkscape:pageshadow="2"
     inkscape:pageopacity="0.0"
     inkscape:pagecheckerboard="0"
     showgrid="false"
     inkscape:zoom="35.166667"
     inkscape:cx="12"
     inkscape:cy="11.616114"
     inkscape:window-width="1848"
     inkscape:window-height="1016"
     inkscape:window-x="72"
     inkscape:window-y="27"
     inkscape:window-maximized="1"
     inkscape:current-layer="svg6" />
  <g
     data-name="Layer 2"
     id="g4"
     transform="scale(1.4773441,1.4136754)"
     inkscape:export-filename="/media/ramb/Data/teksandsAI/DevOps_LandingPage/assets/selenium.png"
     inkscape:export-xdpi="140"
     inkscape:export-ydpi="140">
    <path
       class="cls-selenium_logo"
       d="M 32.06,4.91 21.56,16.7 a 0.32,0.32 0 0 1 -0.47,0 l -5.36,-5.53 a 0.32,0.32 0 0 1 0,-0.4 L 17.5,8.5 a 0.32,0.32 0 0 1 0.52,0 l 3,3.32 a 0.32,0.32 0 0 0 0.49,0 L 29.87,0.36 A 0.23,0.23 0 0 0 29.69,0 H 0.25 A 0.25,0.25 0 0 0 0,0.25 v 33.5 A 0.25,0.25 0 0 0 0.25,34 h 32 A 0.25,0.25 0 0 0 32.5,33.75 V 5.06 A 0.23243279,0.23243279 0 0 0 32.06,4.91 Z m -23,25.36 a 8.08,8.08 0 0 1 -5.74,-2 0.31,0.31 0 0 1 0,-0.41 L 4.57,26.11 A 0.31,0.31 0 0 1 5,26 6.15,6.15 0 0 0 9.2,27.64 c 1.64,0 2.44,-0.76 2.44,-1.56 0,-2.48 -8.08,-0.78 -8.08,-6.06 0,-2.33 2,-4.27 5.32,-4.27 a 7.88,7.88 0 0 1 5.25,1.76 0.31,0.31 0 0 1 0,0.43 L 12.9,19.65 A 0.31,0.31 0 0 1 12.45,19.7 6.08,6.08 0 0 0 8.61,18.38 c -1.28,0 -2,0.57 -2,1.41 0,2.23 8.06,0.74 8.06,6 0,2.54 -1.83,4.48 -5.62,4.48 z M 26.68,25.4 A 0.27,0.27 0 0 1 26.4,25.68 H 19 a 0.09,0.09 0 0 0 -0.08,0.1 2.81,2.81 0 0 0 3,2.32 4.62,4.62 0 0 0 2.56,-0.84 0.27,0.27 0 0 1 0.4,0.06 l 0.9,1.31 a 0.28,0.28 0 0 1 -0.06,0.37 6.67,6.67 0 0 1 -4.1,1.28 5.28,5.28 0 0 1 -5.57,-5.48 5.31,5.31 0 0 1 5.4,-5.46 c 3.11,0 5.22,2.33 5.22,5.74 z"
       id="path2" />
  </g>
</svg>
