<?xml version="1.0" encoding="UTF-8" standalone="no"?>
<!-- Generator: Adobe Illustrator 18.0.0, SVG Export Plug-In . SVG Version: 6.00 Build 0)  -->

<svg
   version="1.1"
   id="Capa_1"
   x="0px"
   y="0px"
   viewBox="0 0 60 60"
   style="enable-background:new 0 0 60 60;"
   xml:space="preserve"
   sodipodi:docname="graph.svg"
   inkscape:version="1.1.1 (1:1.1+202109281949+c3084ef5ed)"
   xmlns:inkscape="http://www.inkscape.org/namespaces/inkscape"
   xmlns:sodipodi="http://sodipodi.sourceforge.net/DTD/sodipodi-0.dtd"
   xmlns="http://www.w3.org/2000/svg"
   xmlns:svg="http://www.w3.org/2000/svg"><defs
   id="defs51" /><sodipodi:namedview
   id="namedview49"
   pagecolor="#ffffff"
   bordercolor="#666666"
   borderopacity="1.0"
   inkscape:pageshadow="2"
   inkscape:pageopacity="0.0"
   inkscape:pagecheckerboard="0"
   showgrid="false"
   inkscape:zoom="14.066667"
   inkscape:cx="30"
   inkscape:cy="30.035545"
   inkscape:window-width="1848"
   inkscape:window-height="1016"
   inkscape:window-x="72"
   inkscape:window-y="27"
   inkscape:window-maximized="1"
   inkscape:current-layer="Capa_1" />
<g
   id="g16">
	<path
   d="M1,2h58c0.553,0,1-0.447,1-1s-0.447-1-1-1H1C0.448,0,0,0.447,0,1S0.448,2,1,2z"
   id="path2"
   style="fill:#00c5fd;fill-opacity:1" />
	<path
   d="M59,58h-2V45v-2V12H47v31v2v13h-1V45v-2V33H36v10v2v13h-1V45v-2V22H25v21v2v13h-1V45v-2V28H14v15v2v13h-1V45v-2v-5H3v5v2   v13H1c-0.552,0-1,0.447-1,1s0.448,1,1,1h2h10h1h10h1h10h1h10h1h10h2c0.553,0,1-0.447,1-1S59.553,58,59,58z M5,40h6v3H5V40z M5,58   V45h6v13H5z M16,30h6v13h-6V30z M16,58V45h6v13H16z M27,24h6v19h-6V24z M27,58V45h6v13H27z M38,35h6v8h-6V35z M38,58V45h6v13H38z    M49,14h6v29h-6V14z M49,58V45h6v13H49z"
   id="path4"
   style="fill:#00c5fd;fill-opacity:1" />
	<path
   d="M8,13h8c0.552,0,1-0.447,1-1s-0.448-1-1-1H8c-0.552,0-1,0.447-1,1S7.448,13,8,13z"
   id="path6"
   style="fill:#00c5fd;fill-opacity:1" />
	<path
   d="M2.29,11.29C2.11,11.47,2,11.729,2,12c0,0.27,0.11,0.52,0.29,0.71C2.48,12.89,2.74,13,3,13c0.26,0,0.52-0.11,0.71-0.29   C3.89,12.52,4,12.26,4,12c0-0.271-0.11-0.521-0.29-0.71C3.33,10.92,2.66,10.92,2.29,11.29z"
   id="path8"
   style="fill:#00c5fd;fill-opacity:1" />
	<path
   d="M7,7c0-0.553-0.448-1-1-1H3C2.448,6,2,6.447,2,7s0.448,1,1,1h3C6.552,8,7,7.553,7,7z"
   id="path10"
   style="fill:#00c5fd;fill-opacity:1" />
	<path
   d="M16,6h-2c-0.552,0-1,0.447-1,1s0.448,1,1,1h2c0.552,0,1-0.447,1-1S16.552,6,16,6z"
   id="path12"
   style="fill:#00c5fd;fill-opacity:1" />
	<path
   d="M10.71,7.71C10.89,7.52,11,7.26,11,7s-0.11-0.521-0.29-0.71c-0.38-0.37-1.04-0.37-1.42,0C9.11,6.479,9,6.74,9,7   s0.11,0.52,0.29,0.71C9.48,7.89,9.74,8,10,8C10.26,8,10.52,7.89,10.71,7.71z"
   id="path14"
   style="fill:#00c5fd;fill-opacity:1" />
</g>
<g
   id="g18">
</g>
<g
   id="g20">
</g>
<g
   id="g22">
</g>
<g
   id="g24">
</g>
<g
   id="g26">
</g>
<g
   id="g28">
</g>
<g
   id="g30">
</g>
<g
   id="g32">
</g>
<g
   id="g34">
</g>
<g
   id="g36">
</g>
<g
   id="g38">
</g>
<g
   id="g40">
</g>
<g
   id="g42">
</g>
<g
   id="g44">
</g>
<g
   id="g46">
</g>
</svg>
