<svg xmlns="http://www.w3.org/2000/svg" width="120" height="50" viewBox="0 0 120 50">
  <g id="Group_7256" data-name="Group 7256" transform="translate(10872 -5466)">
    <rect id="Rectangle_2338" data-name="Rectangle 2338" width="120" height="50" rx="25" transform="translate(-10872 5466)" fill="#3ca1db"/>
    <g id="Group_7254" data-name="Group 7254" transform="translate(4)">
      <rect id="Rectangle_2339" data-name="Rectangle 2339" width="5" height="15" transform="translate(-10844 5483)" fill="#fff"/>
      <rect id="Rectangle_2340" data-name="Rectangle 2340" width="5" height="15" transform="translate(-10852 5483)" fill="#fff"/>
    </g>
    <path id="Path_8451" data-name="Path 8451" d="M-21.331-4.509V0h-2.637V-12.8h4.992a5.776,5.776,0,0,1,2.536.527,3.886,3.886,0,0,1,1.683,1.5,4.178,4.178,0,0,1,.589,2.21,3.674,3.674,0,0,1-1.288,2.966A5.363,5.363,0,0,1-19.02-4.509Zm0-2.136h2.355a2.316,2.316,0,0,0,1.6-.492,1.79,1.79,0,0,0,.549-1.406,2.111,2.111,0,0,0-.554-1.521,2.068,2.068,0,0,0-1.529-.6h-2.417ZM-7.11,0a2.821,2.821,0,0,1-.255-.853A3.073,3.073,0,0,1-9.765.176a3.376,3.376,0,0,1-2.316-.809A2.6,2.6,0,0,1-13-2.672a2.687,2.687,0,0,1,1.121-2.32A5.529,5.529,0,0,1-8.64-5.81h1.169v-.545a1.567,1.567,0,0,0-.338-1.055,1.331,1.331,0,0,0-1.068-.4A1.513,1.513,0,0,0-9.883-7.5a1.045,1.045,0,0,0-.365.844h-2.54a2.551,2.551,0,0,1,.51-1.529,3.37,3.37,0,0,1,1.441-1.1,5.253,5.253,0,0,1,2.092-.4A4.15,4.15,0,0,1-5.955-8.8,3.09,3.09,0,0,1-4.922-6.319V-2.2A4.546,4.546,0,0,0-4.544-.149V0Zm-2.1-1.767a2.188,2.188,0,0,0,1.037-.25,1.645,1.645,0,0,0,.7-.672V-4.324H-8.42q-1.907,0-2.03,1.318l-.009.149a1.017,1.017,0,0,0,.334.782A1.3,1.3,0,0,0-9.211-1.767Zm11.936.8A3.185,3.185,0,0,1,.123.176,3,3,0,0,1-2.21-.7a3.752,3.752,0,0,1-.822-2.575V-9.51h2.54v6.151q0,1.487,1.354,1.487a1.834,1.834,0,0,0,1.775-.9V-9.51H5.186V0H2.795Zm9.527-1.661a.818.818,0,0,0-.461-.734,5.241,5.241,0,0,0-1.481-.479Q6.917-4.553,6.917-6.724a2.613,2.613,0,0,1,1.05-2.114,4.237,4.237,0,0,1,2.747-.848,4.56,4.56,0,0,1,2.9.853A2.687,2.687,0,0,1,14.7-6.618h-2.54a1.229,1.229,0,0,0-.352-.9,1.488,1.488,0,0,0-1.1-.356,1.52,1.52,0,0,0-.993.29.916.916,0,0,0-.352.738.783.783,0,0,0,.4.681,4.114,4.114,0,0,0,1.349.448,11.019,11.019,0,0,1,1.6.426,2.628,2.628,0,0,1,2.013,2.558,2.481,2.481,0,0,1-1.116,2.1,4.815,4.815,0,0,1-2.883.8A5.029,5.029,0,0,1,8.6-.25,3.561,3.561,0,0,1,7.146-1.419a2.716,2.716,0,0,1-.527-1.6H9.026a1.326,1.326,0,0,0,.5,1.037,1.987,1.987,0,0,0,1.248.36,1.839,1.839,0,0,0,1.1-.277A.861.861,0,0,0,12.252-2.628Zm8.481,2.8a4.668,4.668,0,0,1-3.406-1.283,4.561,4.561,0,0,1-1.314-3.419v-.246a5.745,5.745,0,0,1,.554-2.562,4.064,4.064,0,0,1,1.569-1.74,4.4,4.4,0,0,1,2.316-.611,3.947,3.947,0,0,1,3.072,1.23,5,5,0,0,1,1.121,3.489v1.037H18.589a2.36,2.36,0,0,0,.743,1.494,2.245,2.245,0,0,0,1.569.563,2.742,2.742,0,0,0,2.294-1.063l1.248,1.4A3.813,3.813,0,0,1,22.9-.277,5.075,5.075,0,0,1,20.733.176Zm-.29-7.813a1.587,1.587,0,0,0-1.226.512,2.651,2.651,0,0,0-.6,1.466h3.533v-.2a1.891,1.891,0,0,0-.457-1.311A1.638,1.638,0,0,0,20.443-7.638Z" transform="translate(-10800 5497)" fill="#fff"/>
  </g>
</svg>
