<svg xmlns="http://www.w3.org/2000/svg" width="250" height="50" viewBox="0 0 250 50">
  <g id="Group_7257" data-name="Group 7257" transform="translate(10790 -5352)">
    <rect id="Rectangle_2344" data-name="Rectangle 2344" width="250" height="50" rx="25" transform="translate(-10790 5352)" fill="#3ca1db"/>
    <path id="Path_8450" data-name="Path 8450" d="M-55.63-3.357A1.353,1.353,0,0,0-56.158-4.5a6.917,6.917,0,0,0-1.9-.844,13.458,13.458,0,0,1-2.171-.875A3.547,3.547,0,0,1-62.407-9.4a3.09,3.09,0,0,1,.584-1.85,3.812,3.812,0,0,1,1.679-1.27,6.318,6.318,0,0,1,2.457-.457,5.751,5.751,0,0,1,2.443.5,3.891,3.891,0,0,1,1.666,1.4,3.668,3.668,0,0,1,.593,2.057h-2.637a1.726,1.726,0,0,0-.554-1.367,2.276,2.276,0,0,0-1.556-.488,2.432,2.432,0,0,0-1.5.409,1.289,1.289,0,0,0-.536,1.077,1.235,1.235,0,0,0,.628,1.046,7.1,7.1,0,0,0,1.85.791,7.994,7.994,0,0,1,3.278,1.679,3.343,3.343,0,0,1,1.028,2.5A3.08,3.08,0,0,1-54.242-.769a5.5,5.5,0,0,1-3.384.945,6.534,6.534,0,0,1-2.689-.541,4.256,4.256,0,0,1-1.85-1.481,3.793,3.793,0,0,1-.637-2.18h2.646q0,2.118,2.531,2.118a2.462,2.462,0,0,0,1.468-.382A1.244,1.244,0,0,0-55.63-3.357Zm7.3-8.49V-9.51H-46.7v1.863h-1.626V-2.9a1.133,1.133,0,0,0,.2.756,1.015,1.015,0,0,0,.773.229,4.051,4.051,0,0,0,.747-.062V-.053a5.229,5.229,0,0,1-1.538.229,2.425,2.425,0,0,1-2.725-2.7V-7.646h-1.389V-9.51h1.389v-2.338ZM-39.775,0a2.821,2.821,0,0,1-.255-.853,3.073,3.073,0,0,1-2.4,1.028,3.376,3.376,0,0,1-2.316-.809,2.6,2.6,0,0,1-.918-2.039,2.687,2.687,0,0,1,1.121-2.32A5.529,5.529,0,0,1-41.3-5.81h1.169v-.545a1.567,1.567,0,0,0-.338-1.055,1.331,1.331,0,0,0-1.068-.4,1.513,1.513,0,0,0-1.006.308,1.045,1.045,0,0,0-.365.844h-2.54a2.551,2.551,0,0,1,.51-1.529,3.37,3.37,0,0,1,1.441-1.1,5.253,5.253,0,0,1,2.092-.4,4.15,4.15,0,0,1,2.791.883,3.09,3.09,0,0,1,1.033,2.483V-2.2a4.546,4.546,0,0,0,.378,2.048V0Zm-2.1-1.767a2.188,2.188,0,0,0,1.037-.25,1.645,1.645,0,0,0,.7-.672V-4.324h-.949q-1.907,0-2.03,1.318l-.009.149a1.017,1.017,0,0,0,.334.782A1.3,1.3,0,0,0-41.875-1.767Zm11.584-5.361a6.9,6.9,0,0,0-.914-.07,1.86,1.86,0,0,0-1.89.976V0h-2.54V-9.51h2.4l.07,1.134a2.354,2.354,0,0,1,2.118-1.31,2.662,2.662,0,0,1,.791.114Zm4.7-4.72V-9.51h1.626v1.863h-1.626V-2.9a1.133,1.133,0,0,0,.2.756,1.015,1.015,0,0,0,.773.229,4.051,4.051,0,0,0,.747-.062V-.053A5.229,5.229,0,0,1-25.4.176a2.425,2.425,0,0,1-2.725-2.7V-7.646h-1.389V-9.51h1.389v-2.338Zm12.428,7.163h-2.1V0H-17.9V-12.8h4.755a5.375,5.375,0,0,1,3.5,1.011A3.488,3.488,0,0,1-8.416-8.93a3.937,3.937,0,0,1-.567,2.184A3.866,3.866,0,0,1-10.7-5.353L-7.932-.123V0h-2.83Zm-2.1-2.136h2.127A2.178,2.178,0,0,0-11.6-7.326a1.806,1.806,0,0,0,.545-1.393,1.933,1.933,0,0,0-.514-1.424,2.137,2.137,0,0,0-1.578-.519h-2.118ZM-2.2.176A4.668,4.668,0,0,1-5.607-1.107,4.561,4.561,0,0,1-6.921-4.526v-.246a5.745,5.745,0,0,1,.554-2.562A4.064,4.064,0,0,1-4.8-9.075a4.4,4.4,0,0,1,2.316-.611A3.947,3.947,0,0,1,.589-8.455,5,5,0,0,1,1.709-4.966v1.037H-4.346A2.36,2.36,0,0,0-3.6-2.435a2.245,2.245,0,0,0,1.569.563A2.742,2.742,0,0,0,.259-2.936l1.248,1.4A3.813,3.813,0,0,1-.04-.277,5.075,5.075,0,0,1-2.2.176Zm-.29-7.813a1.587,1.587,0,0,0-1.226.512,2.651,2.651,0,0,0-.6,1.466H-.787v-.2a1.891,1.891,0,0,0-.457-1.311A1.638,1.638,0,0,0-2.492-7.638Zm9.6,5.766a1.666,1.666,0,0,0,1.143-.387,1.355,1.355,0,0,0,.457-1.028h2.382a3.258,3.258,0,0,1-.527,1.771A3.48,3.48,0,0,1,9.141-.268,4.442,4.442,0,0,1,7.15.176a4.129,4.129,0,0,1-3.217-1.3A5.13,5.13,0,0,1,2.755-4.7v-.167A5.071,5.071,0,0,1,3.924-8.376a4.08,4.08,0,0,1,3.208-1.31A4,4,0,0,1,9.993-8.67a3.594,3.594,0,0,1,1.094,2.7H8.706a1.745,1.745,0,0,0-.457-1.206,1.524,1.524,0,0,0-1.16-.464,1.53,1.53,0,0,0-1.34.647,3.749,3.749,0,0,0-.453,2.1v.264a3.8,3.8,0,0,0,.448,2.113A1.549,1.549,0,0,0,7.106-1.872Zm5.036-2.971a5.64,5.64,0,0,1,.545-2.522,3.989,3.989,0,0,1,1.569-1.714,4.577,4.577,0,0,1,2.377-.606,4.33,4.33,0,0,1,3.142,1.178,4.727,4.727,0,0,1,1.358,3.2l.018.65a4.97,4.97,0,0,1-1.222,3.511A4.247,4.247,0,0,1,16.651.176a4.268,4.268,0,0,1-3.283-1.318,5.058,5.058,0,0,1-1.226-3.586Zm2.54.18a3.555,3.555,0,0,0,.51,2.073,1.682,1.682,0,0,0,1.459.717,1.686,1.686,0,0,0,1.441-.709,3.89,3.89,0,0,0,.519-2.267,3.519,3.519,0,0,0-.519-2.06,1.686,1.686,0,0,0-1.459-.731,1.658,1.658,0,0,0-1.441.726A3.955,3.955,0,0,0,14.682-4.662ZM28.059-7.128a6.9,6.9,0,0,0-.914-.07,1.86,1.86,0,0,0-1.89.976V0h-2.54V-9.51h2.4l.07,1.134A2.354,2.354,0,0,1,27.3-9.686a2.662,2.662,0,0,1,.791.114Zm.659,2.3a5.731,5.731,0,0,1,1-3.542,3.237,3.237,0,0,1,2.729-1.318,2.913,2.913,0,0,1,2.294,1.037V-13.5h2.549V0H34.994l-.123-1.011A2.989,2.989,0,0,1,32.427.176a3.228,3.228,0,0,1-2.694-1.323A5.916,5.916,0,0,1,28.718-4.825Zm2.54.189a3.754,3.754,0,0,0,.466,2.051,1.517,1.517,0,0,0,1.354.713,1.7,1.7,0,0,0,1.661-.995V-6.625A1.675,1.675,0,0,0,33.1-7.62Q31.258-7.62,31.258-4.636ZM41.937,0H39.388V-9.51h2.549Zm-2.7-11.971a1.251,1.251,0,0,1,.382-.94,1.436,1.436,0,0,1,1.042-.369,1.44,1.44,0,0,1,1.037.369,1.244,1.244,0,0,1,.387.94,1.247,1.247,0,0,1-.391.949,1.443,1.443,0,0,1-1.033.369,1.443,1.443,0,0,1-1.033-.369A1.247,1.247,0,0,1,39.239-11.971ZM46.367-9.51l.079,1.1a3.32,3.32,0,0,1,2.733-1.274,2.759,2.759,0,0,1,2.25.888,4.142,4.142,0,0,1,.756,2.654V0h-2.54V-6.082a1.648,1.648,0,0,0-.352-1.173,1.574,1.574,0,0,0-1.169-.365,1.747,1.747,0,0,0-1.608.914V0h-2.54V-9.51Zm7.374,4.685A5.573,5.573,0,0,1,54.782-8.35,3.375,3.375,0,0,1,57.59-9.686a2.96,2.96,0,0,1,2.435,1.072l.105-.9h2.3V-.316a4.064,4.064,0,0,1-.567,2.171,3.641,3.641,0,0,1-1.6,1.406,5.608,5.608,0,0,1-2.408.483,5.215,5.215,0,0,1-2.039-.417,3.619,3.619,0,0,1-1.5-1.077L55.446.7a2.975,2.975,0,0,0,2.3,1.063,2.178,2.178,0,0,0,1.573-.541,2.027,2.027,0,0,0,.563-1.534v-.51a2.938,2.938,0,0,1-2.312.993A3.366,3.366,0,0,1,54.8-1.165,5.572,5.572,0,0,1,53.741-4.72Zm2.54.189A3.47,3.47,0,0,0,56.8-2.607a1.65,1.65,0,0,0,1.424.735,1.764,1.764,0,0,0,1.661-.871V-6.749a1.76,1.76,0,0,0-1.644-.871,1.66,1.66,0,0,0-1.437.748A3.911,3.911,0,0,0,56.281-4.636Z" transform="translate(-10651.5 5383)" fill="#fff"/>
    <g id="microphone-svgrepo-com" transform="translate(-10816.577 5366)">
      <path id="Path_8448" data-name="Path 8448" d="M153.575,14.148a4,4,0,0,0,4-4V4a4,4,0,1,0-8,0V10.15A4,4,0,0,0,153.575,14.148Z" transform="translate(-71.49)" fill="#fff"/>
      <path id="Path_8449" data-name="Path 8449" d="M87.487,136.147v1.4h.7v2.374a6.1,6.1,0,0,1-12.208,0v-2.374h.7v-1.4H74.577v3.778a7.518,7.518,0,0,0,6.806,7.475v2.968H77.15v1.4h9.87v-1.4H82.787V147.4a7.518,7.518,0,0,0,6.806-7.475v-3.778H87.487Z" transform="translate(0 -129.775)" fill="#fff"/>
    </g>
  </g>
</svg>
