<svg xmlns="http://www.w3.org/2000/svg" width="120" height="50" viewBox="0 0 120 50">
  <g id="Group_7255" data-name="Group 7255" transform="translate(10504 -5466)">
    <rect id="Rectangle_2345" data-name="Rectangle 2345" width="120" height="50" rx="25" transform="translate(-10504 5466)" fill="#3ca1db"/>
    <rect id="Rectangle_2343" data-name="Rectangle 2343" width="15" height="15" transform="translate(-10475 5483)" fill="#fff"/>
    <path id="Path_8452" data-name="Path 8452" d="M-10.819-3.357A1.353,1.353,0,0,0-11.347-4.5a6.917,6.917,0,0,0-1.9-.844,13.458,13.458,0,0,1-2.171-.875A3.547,3.547,0,0,1-17.6-9.4a3.09,3.09,0,0,1,.584-1.85,3.812,3.812,0,0,1,1.679-1.27,6.318,6.318,0,0,1,2.457-.457,5.751,5.751,0,0,1,2.443.5,3.891,3.891,0,0,1,1.666,1.4,3.668,3.668,0,0,1,.593,2.057h-2.637a1.726,1.726,0,0,0-.554-1.367,2.276,2.276,0,0,0-1.556-.488,2.432,2.432,0,0,0-1.5.409,1.289,1.289,0,0,0-.536,1.077,1.235,1.235,0,0,0,.628,1.046,7.1,7.1,0,0,0,1.85.791A7.994,7.994,0,0,1-9.2-5.871a3.343,3.343,0,0,1,1.028,2.5A3.08,3.08,0,0,1-9.431-.769a5.5,5.5,0,0,1-3.384.945A6.534,6.534,0,0,1-15.5-.365a4.256,4.256,0,0,1-1.85-1.481,3.793,3.793,0,0,1-.637-2.18h2.646q0,2.118,2.531,2.118a2.462,2.462,0,0,0,1.468-.382A1.244,1.244,0,0,0-10.819-3.357Zm7.3-8.49V-9.51H-1.89v1.863H-3.516V-2.9a1.133,1.133,0,0,0,.2.756,1.015,1.015,0,0,0,.773.229,4.051,4.051,0,0,0,.747-.062V-.053A5.229,5.229,0,0,1-3.331.176a2.425,2.425,0,0,1-2.725-2.7V-7.646H-7.444V-9.51h1.389v-2.338Zm2.382,7A5.64,5.64,0,0,1-.589-7.365,3.989,3.989,0,0,1,.98-9.079a4.577,4.577,0,0,1,2.377-.606A4.33,4.33,0,0,1,6.5-8.508a4.727,4.727,0,0,1,1.358,3.2l.018.65A4.97,4.97,0,0,1,6.653-1.147,4.247,4.247,0,0,1,3.375.176,4.268,4.268,0,0,1,.092-1.143,5.058,5.058,0,0,1-1.134-4.729Zm2.54.18a3.555,3.555,0,0,0,.51,2.073,1.682,1.682,0,0,0,1.459.717,1.686,1.686,0,0,0,1.441-.709,3.89,3.89,0,0,0,.519-2.267,3.519,3.519,0,0,0-.519-2.06,1.686,1.686,0,0,0-1.459-.731,1.658,1.658,0,0,0-1.441.726A3.955,3.955,0,0,0,1.406-4.662ZM18-4.667a5.7,5.7,0,0,1-1,3.52A3.2,3.2,0,0,1,14.309.176a2.963,2.963,0,0,1-2.329-1V3.656H9.439V-9.51h2.355l.088.932a2.985,2.985,0,0,1,2.408-1.107,3.22,3.22,0,0,1,2.733,1.3A5.858,5.858,0,0,1,18-4.8Zm-2.54-.185A3.743,3.743,0,0,0,14.99-6.9a1.532,1.532,0,0,0-1.367-.721,1.663,1.663,0,0,0-1.644.914v3.894a1.692,1.692,0,0,0,1.661.94Q15.46-1.872,15.46-4.852Z" transform="translate(-10431 5497)" fill="#fff"/>
  </g>
</svg>
